<?xml version="1.0" encoding="utf-8" standalone="no"?>
<!DOCTYPE svg PUBLIC "-//W3C//DTD SVG 1.1//EN"
  "http://www.w3.org/Graphics/SVG/1.1/DTD/svg11.dtd">
<svg xmlns:xlink="http://www.w3.org/1999/xlink" width="712.17707pt" height="279.54429pt" viewBox="0 0 712.17707 279.54429" xmlns="http://www.w3.org/2000/svg" version="1.1">
 <metadata>
  <rdf:RDF xmlns:dc="http://purl.org/dc/elements/1.1/" xmlns:cc="http://creativecommons.org/ns#" xmlns:rdf="http://www.w3.org/1999/02/22-rdf-syntax-ns#">
   <cc:Work>
    <dc:type rdf:resource="http://purl.org/dc/dcmitype/StillImage"/>
    <dc:date>2026-04-11T18:38:55.357126</dc:date>
    <dc:format>image/svg+xml</dc:format>
    <dc:creator>
     <cc:Agent>
      <dc:title>Matplotlib v3.10.8, https://matplotlib.org/</dc:title>
     </cc:Agent>
    </dc:creator>
   </cc:Work>
  </rdf:RDF>
 </metadata>
 <defs>
  <style type="text/css">*{stroke-linejoin: round; stroke-linecap: butt}</style>
 </defs>
 <g id="figure_1">
  <g id="patch_1">
   <path d="M 0 279.54429 
L 712.17707 279.54429 
L 712.17707 0 
L 0 0 
z
" style="fill: #ffffff"/>
  </g>
  <g id="axes_1">
   <g id="patch_2">
    <path d="M 49.900937 236.490852 
L 704.97707 236.490852 
L 704.97707 22.318125 
L 49.900937 22.318125 
z
" style="fill: #ffffff"/>
   </g>
   <g id="matplotlib.axis_1">
    <g id="xtick_1">
     <g id="line2d_1">
      <path d="M 129.491147 236.490852 
L 129.491147 22.318125 
" clip-path="url(#p721984b982)" style="fill: none; stroke: #cccccc; stroke-linecap: round"/>
     </g>
     <g id="text_1">
      <!-- 0.0 -->
      <g style="fill: #262626" transform="translate(120.744428 254.349134) scale(0.11 -0.11)">
       <defs>
        <path id="DejaVuSans-30" d="M 2034 4250 
Q 1547 4250 1301 3770 
Q 1056 3291 1056 2328 
Q 1056 1369 1301 889 
Q 1547 409 2034 409 
Q 2525 409 2770 889 
Q 3016 1369 3016 2328 
Q 3016 3291 2770 3770 
Q 2525 4250 2034 4250 
z
M 2034 4750 
Q 2819 4750 3233 4129 
Q 3647 3509 3647 2328 
Q 3647 1150 3233 529 
Q 2819 -91 2034 -91 
Q 1250 -91 836 529 
Q 422 1150 422 2328 
Q 422 3509 836 4129 
Q 1250 4750 2034 4750 
z
" transform="scale(0.015625)"/>
        <path id="DejaVuSans-2e" d="M 684 794 
L 1344 794 
L 1344 0 
L 684 0 
L 684 794 
z
" transform="scale(0.015625)"/>
       </defs>
       <use xlink:href="#DejaVuSans-30"/>
       <use xlink:href="#DejaVuSans-2e" transform="translate(63.623047 0)"/>
       <use xlink:href="#DejaVuSans-30" transform="translate(95.410156 0)"/>
      </g>
     </g>
    </g>
    <g id="xtick_2">
     <g id="line2d_2">
      <path d="M 209.71396 236.490852 
L 209.71396 22.318125 
" clip-path="url(#p721984b982)" style="fill: none; stroke: #cccccc; stroke-linecap: round"/>
     </g>
     <g id="text_2">
      <!-- 2.5 -->
      <g style="fill: #262626" transform="translate(200.967241 254.349134) scale(0.11 -0.11)">
       <defs>
        <path id="DejaVuSans-32" d="M 1228 531 
L 3431 531 
L 3431 0 
L 469 0 
L 469 531 
Q 828 903 1448 1529 
Q 2069 2156 2228 2338 
Q 2531 2678 2651 2914 
Q 2772 3150 2772 3378 
Q 2772 3750 2511 3984 
Q 2250 4219 1831 4219 
Q 1534 4219 1204 4116 
Q 875 4013 500 3803 
L 500 4441 
Q 881 4594 1212 4672 
Q 1544 4750 1819 4750 
Q 2544 4750 2975 4387 
Q 3406 4025 3406 3419 
Q 3406 3131 3298 2873 
Q 3191 2616 2906 2266 
Q 2828 2175 2409 1742 
Q 1991 1309 1228 531 
z
" transform="scale(0.015625)"/>
        <path id="DejaVuSans-35" d="M 691 4666 
L 3169 4666 
L 3169 4134 
L 1269 4134 
L 1269 2991 
Q 1406 3038 1543 3061 
Q 1681 3084 1819 3084 
Q 2600 3084 3056 2656 
Q 3513 2228 3513 1497 
Q 3513 744 3044 326 
Q 2575 -91 1722 -91 
Q 1428 -91 1123 -41 
Q 819 9 494 109 
L 494 744 
Q 775 591 1075 516 
Q 1375 441 1709 441 
Q 2250 441 2565 725 
Q 2881 1009 2881 1497 
Q 2881 1984 2565 2268 
Q 2250 2553 1709 2553 
Q 1456 2553 1204 2497 
Q 953 2441 691 2322 
L 691 4666 
z
" transform="scale(0.015625)"/>
       </defs>
       <use xlink:href="#DejaVuSans-32"/>
       <use xlink:href="#DejaVuSans-2e" transform="translate(63.623047 0)"/>
       <use xlink:href="#DejaVuSans-35" transform="translate(95.410156 0)"/>
      </g>
     </g>
    </g>
    <g id="xtick_3">
     <g id="line2d_3">
      <path d="M 289.936773 236.490852 
L 289.936773 22.318125 
" clip-path="url(#p721984b982)" style="fill: none; stroke: #cccccc; stroke-linecap: round"/>
     </g>
     <g id="text_3">
      <!-- 5.0 -->
      <g style="fill: #262626" transform="translate(281.190054 254.349134) scale(0.11 -0.11)">
       <use xlink:href="#DejaVuSans-35"/>
       <use xlink:href="#DejaVuSans-2e" transform="translate(63.623047 0)"/>
       <use xlink:href="#DejaVuSans-30" transform="translate(95.410156 0)"/>
      </g>
     </g>
    </g>
    <g id="xtick_4">
     <g id="line2d_4">
      <path d="M 370.159586 236.490852 
L 370.159586 22.318125 
" clip-path="url(#p721984b982)" style="fill: none; stroke: #cccccc; stroke-linecap: round"/>
     </g>
     <g id="text_4">
      <!-- 7.5 -->
      <g style="fill: #262626" transform="translate(361.412867 254.349134) scale(0.11 -0.11)">
       <defs>
        <path id="DejaVuSans-37" d="M 525 4666 
L 3525 4666 
L 3525 4397 
L 1831 0 
L 1172 0 
L 2766 4134 
L 525 4134 
L 525 4666 
z
" transform="scale(0.015625)"/>
       </defs>
       <use xlink:href="#DejaVuSans-37"/>
       <use xlink:href="#DejaVuSans-2e" transform="translate(63.623047 0)"/>
       <use xlink:href="#DejaVuSans-35" transform="translate(95.410156 0)"/>
      </g>
     </g>
    </g>
    <g id="xtick_5">
     <g id="line2d_5">
      <path d="M 450.382398 236.490852 
L 450.382398 22.318125 
" clip-path="url(#p721984b982)" style="fill: none; stroke: #cccccc; stroke-linecap: round"/>
     </g>
     <g id="text_5">
      <!-- 10.0 -->
      <g style="fill: #262626" transform="translate(438.136305 254.349134) scale(0.11 -0.11)">
       <defs>
        <path id="DejaVuSans-31" d="M 794 531 
L 1825 531 
L 1825 4091 
L 703 3866 
L 703 4441 
L 1819 4666 
L 2450 4666 
L 2450 531 
L 3481 531 
L 3481 0 
L 794 0 
L 794 531 
z
" transform="scale(0.015625)"/>
       </defs>
       <use xlink:href="#DejaVuSans-31"/>
       <use xlink:href="#DejaVuSans-30" transform="translate(63.623047 0)"/>
       <use xlink:href="#DejaVuSans-2e" transform="translate(127.246094 0)"/>
       <use xlink:href="#DejaVuSans-30" transform="translate(159.033203 0)"/>
      </g>
     </g>
    </g>
    <g id="xtick_6">
     <g id="line2d_6">
      <path d="M 530.605211 236.490852 
L 530.605211 22.318125 
" clip-path="url(#p721984b982)" style="fill: none; stroke: #cccccc; stroke-linecap: round"/>
     </g>
     <g id="text_6">
      <!-- 12.5 -->
      <g style="fill: #262626" transform="translate(518.359118 254.349134) scale(0.11 -0.11)">
       <use xlink:href="#DejaVuSans-31"/>
       <use xlink:href="#DejaVuSans-32" transform="translate(63.623047 0)"/>
       <use xlink:href="#DejaVuSans-2e" transform="translate(127.246094 0)"/>
       <use xlink:href="#DejaVuSans-35" transform="translate(159.033203 0)"/>
      </g>
     </g>
    </g>
    <g id="xtick_7">
     <g id="line2d_7">
      <path d="M 610.828024 236.490852 
L 610.828024 22.318125 
" clip-path="url(#p721984b982)" style="fill: none; stroke: #cccccc; stroke-linecap: round"/>
     </g>
     <g id="text_7">
      <!-- 15.0 -->
      <g style="fill: #262626" transform="translate(598.58193 254.349134) scale(0.11 -0.11)">
       <use xlink:href="#DejaVuSans-31"/>
       <use xlink:href="#DejaVuSans-35" transform="translate(63.623047 0)"/>
       <use xlink:href="#DejaVuSans-2e" transform="translate(127.246094 0)"/>
       <use xlink:href="#DejaVuSans-30" transform="translate(159.033203 0)"/>
      </g>
     </g>
    </g>
    <g id="xtick_8">
     <g id="line2d_8">
      <path d="M 691.050837 236.490852 
L 691.050837 22.318125 
" clip-path="url(#p721984b982)" style="fill: none; stroke: #cccccc; stroke-linecap: round"/>
     </g>
     <g id="text_8">
      <!-- 17.5 -->
      <g style="fill: #262626" transform="translate(678.804743 254.349134) scale(0.11 -0.11)">
       <use xlink:href="#DejaVuSans-31"/>
       <use xlink:href="#DejaVuSans-37" transform="translate(63.623047 0)"/>
       <use xlink:href="#DejaVuSans-2e" transform="translate(127.246094 0)"/>
       <use xlink:href="#DejaVuSans-35" transform="translate(159.033203 0)"/>
      </g>
     </g>
    </g>
    <g id="text_9">
     <!-- Local Spatial Association Penalty (LSAP) -->
     <g style="fill: #262626" transform="translate(240.598691 269.754915) scale(0.12 -0.12)">
      <defs>
       <path id="DejaVuSans-Bold-4c" d="M 588 4666 
L 1791 4666 
L 1791 909 
L 3903 909 
L 3903 0 
L 588 0 
L 588 4666 
z
" transform="scale(0.015625)"/>
       <path id="DejaVuSans-Bold-6f" d="M 2203 2784 
Q 1831 2784 1636 2517 
Q 1441 2250 1441 1747 
Q 1441 1244 1636 976 
Q 1831 709 2203 709 
Q 2569 709 2762 976 
Q 2956 1244 2956 1747 
Q 2956 2250 2762 2517 
Q 2569 2784 2203 2784 
z
M 2203 3584 
Q 3106 3584 3614 3096 
Q 4122 2609 4122 1747 
Q 4122 884 3614 396 
Q 3106 -91 2203 -91 
Q 1297 -91 786 396 
Q 275 884 275 1747 
Q 275 2609 786 3096 
Q 1297 3584 2203 3584 
z
" transform="scale(0.015625)"/>
       <path id="DejaVuSans-Bold-63" d="M 3366 3391 
L 3366 2478 
Q 3138 2634 2908 2709 
Q 2678 2784 2431 2784 
Q 1963 2784 1702 2511 
Q 1441 2238 1441 1747 
Q 1441 1256 1702 982 
Q 1963 709 2431 709 
Q 2694 709 2930 787 
Q 3166 866 3366 1019 
L 3366 103 
Q 3103 6 2833 -42 
Q 2563 -91 2291 -91 
Q 1344 -91 809 395 
Q 275 881 275 1747 
Q 275 2613 809 3098 
Q 1344 3584 2291 3584 
Q 2566 3584 2833 3536 
Q 3100 3488 3366 3391 
z
" transform="scale(0.015625)"/>
       <path id="DejaVuSans-Bold-61" d="M 2106 1575 
Q 1756 1575 1579 1456 
Q 1403 1338 1403 1106 
Q 1403 894 1545 773 
Q 1688 653 1941 653 
Q 2256 653 2472 879 
Q 2688 1106 2688 1447 
L 2688 1575 
L 2106 1575 
z
M 3816 1997 
L 3816 0 
L 2688 0 
L 2688 519 
Q 2463 200 2181 54 
Q 1900 -91 1497 -91 
Q 953 -91 614 226 
Q 275 544 275 1050 
Q 275 1666 698 1953 
Q 1122 2241 2028 2241 
L 2688 2241 
L 2688 2328 
Q 2688 2594 2478 2717 
Q 2269 2841 1825 2841 
Q 1466 2841 1156 2769 
Q 847 2697 581 2553 
L 581 3406 
Q 941 3494 1303 3539 
Q 1666 3584 2028 3584 
Q 2975 3584 3395 3211 
Q 3816 2838 3816 1997 
z
" transform="scale(0.015625)"/>
       <path id="DejaVuSans-Bold-6c" d="M 538 4863 
L 1656 4863 
L 1656 0 
L 538 0 
L 538 4863 
z
" transform="scale(0.015625)"/>
       <path id="DejaVuSans-Bold-20" transform="scale(0.015625)"/>
       <path id="DejaVuSans-Bold-53" d="M 3834 4519 
L 3834 3531 
Q 3450 3703 3084 3790 
Q 2719 3878 2394 3878 
Q 1963 3878 1756 3759 
Q 1550 3641 1550 3391 
Q 1550 3203 1689 3098 
Q 1828 2994 2194 2919 
L 2706 2816 
Q 3484 2659 3812 2340 
Q 4141 2022 4141 1434 
Q 4141 663 3683 286 
Q 3225 -91 2284 -91 
Q 1841 -91 1394 -6 
Q 947 78 500 244 
L 500 1259 
Q 947 1022 1364 901 
Q 1781 781 2169 781 
Q 2563 781 2772 912 
Q 2981 1044 2981 1288 
Q 2981 1506 2839 1625 
Q 2697 1744 2272 1838 
L 1806 1941 
Q 1106 2091 782 2419 
Q 459 2747 459 3303 
Q 459 4000 909 4375 
Q 1359 4750 2203 4750 
Q 2588 4750 2994 4692 
Q 3400 4634 3834 4519 
z
" transform="scale(0.015625)"/>
       <path id="DejaVuSans-Bold-70" d="M 1656 506 
L 1656 -1331 
L 538 -1331 
L 538 3500 
L 1656 3500 
L 1656 2988 
Q 1888 3294 2169 3439 
Q 2450 3584 2816 3584 
Q 3463 3584 3878 3070 
Q 4294 2556 4294 1747 
Q 4294 938 3878 423 
Q 3463 -91 2816 -91 
Q 2450 -91 2169 54 
Q 1888 200 1656 506 
z
M 2400 2772 
Q 2041 2772 1848 2508 
Q 1656 2244 1656 1747 
Q 1656 1250 1848 986 
Q 2041 722 2400 722 
Q 2759 722 2948 984 
Q 3138 1247 3138 1747 
Q 3138 2247 2948 2509 
Q 2759 2772 2400 2772 
z
" transform="scale(0.015625)"/>
       <path id="DejaVuSans-Bold-74" d="M 1759 4494 
L 1759 3500 
L 2913 3500 
L 2913 2700 
L 1759 2700 
L 1759 1216 
Q 1759 972 1856 886 
Q 1953 800 2241 800 
L 2816 800 
L 2816 0 
L 1856 0 
Q 1194 0 917 276 
Q 641 553 641 1216 
L 641 2700 
L 84 2700 
L 84 3500 
L 641 3500 
L 641 4494 
L 1759 4494 
z
" transform="scale(0.015625)"/>
       <path id="DejaVuSans-Bold-69" d="M 538 3500 
L 1656 3500 
L 1656 0 
L 538 0 
L 538 3500 
z
M 538 4863 
L 1656 4863 
L 1656 3950 
L 538 3950 
L 538 4863 
z
" transform="scale(0.015625)"/>
       <path id="DejaVuSans-Bold-41" d="M 3419 850 
L 1538 850 
L 1241 0 
L 31 0 
L 1759 4666 
L 3194 4666 
L 4922 0 
L 3713 0 
L 3419 850 
z
M 1838 1716 
L 3116 1716 
L 2478 3572 
L 1838 1716 
z
" transform="scale(0.015625)"/>
       <path id="DejaVuSans-Bold-73" d="M 3272 3391 
L 3272 2541 
Q 2913 2691 2578 2766 
Q 2244 2841 1947 2841 
Q 1628 2841 1473 2761 
Q 1319 2681 1319 2516 
Q 1319 2381 1436 2309 
Q 1553 2238 1856 2203 
L 2053 2175 
Q 2913 2066 3209 1816 
Q 3506 1566 3506 1031 
Q 3506 472 3093 190 
Q 2681 -91 1863 -91 
Q 1516 -91 1145 -36 
Q 775 19 384 128 
L 384 978 
Q 719 816 1070 734 
Q 1422 653 1784 653 
Q 2113 653 2278 743 
Q 2444 834 2444 1013 
Q 2444 1163 2330 1236 
Q 2216 1309 1875 1350 
L 1678 1375 
Q 931 1469 631 1722 
Q 331 1975 331 2491 
Q 331 3047 712 3315 
Q 1094 3584 1881 3584 
Q 2191 3584 2531 3537 
Q 2872 3491 3272 3391 
z
" transform="scale(0.015625)"/>
       <path id="DejaVuSans-Bold-6e" d="M 4056 2131 
L 4056 0 
L 2931 0 
L 2931 347 
L 2931 1631 
Q 2931 2084 2911 2256 
Q 2891 2428 2841 2509 
Q 2775 2619 2662 2680 
Q 2550 2741 2406 2741 
Q 2056 2741 1856 2470 
Q 1656 2200 1656 1722 
L 1656 0 
L 538 0 
L 538 3500 
L 1656 3500 
L 1656 2988 
Q 1909 3294 2193 3439 
Q 2478 3584 2822 3584 
Q 3428 3584 3742 3212 
Q 4056 2841 4056 2131 
z
" transform="scale(0.015625)"/>
       <path id="DejaVuSans-Bold-50" d="M 588 4666 
L 2584 4666 
Q 3475 4666 3951 4270 
Q 4428 3875 4428 3144 
Q 4428 2409 3951 2014 
Q 3475 1619 2584 1619 
L 1791 1619 
L 1791 0 
L 588 0 
L 588 4666 
z
M 1791 3794 
L 1791 2491 
L 2456 2491 
Q 2806 2491 2997 2661 
Q 3188 2831 3188 3144 
Q 3188 3456 2997 3625 
Q 2806 3794 2456 3794 
L 1791 3794 
z
" transform="scale(0.015625)"/>
       <path id="DejaVuSans-Bold-65" d="M 4031 1759 
L 4031 1441 
L 1416 1441 
Q 1456 1047 1700 850 
Q 1944 653 2381 653 
Q 2734 653 3104 758 
Q 3475 863 3866 1075 
L 3866 213 
Q 3469 63 3072 -14 
Q 2675 -91 2278 -91 
Q 1328 -91 801 392 
Q 275 875 275 1747 
Q 275 2603 792 3093 
Q 1309 3584 2216 3584 
Q 3041 3584 3536 3087 
Q 4031 2591 4031 1759 
z
M 2881 2131 
Q 2881 2450 2695 2645 
Q 2509 2841 2209 2841 
Q 1884 2841 1681 2658 
Q 1478 2475 1428 2131 
L 2881 2131 
z
" transform="scale(0.015625)"/>
       <path id="DejaVuSans-Bold-79" d="M 78 3500 
L 1197 3500 
L 2138 1125 
L 2938 3500 
L 4056 3500 
L 2584 -331 
Q 2363 -916 2067 -1148 
Q 1772 -1381 1288 -1381 
L 641 -1381 
L 641 -647 
L 991 -647 
Q 1275 -647 1404 -556 
Q 1534 -466 1606 -231 
L 1638 -134 
L 78 3500 
z
" transform="scale(0.015625)"/>
       <path id="DejaVuSans-Bold-28" d="M 2413 -844 
L 1484 -844 
Q 1006 -72 778 623 
Q 550 1319 550 2003 
Q 550 2688 779 3389 
Q 1009 4091 1484 4856 
L 2413 4856 
Q 2013 4116 1813 3408 
Q 1613 2700 1613 2009 
Q 1613 1319 1811 609 
Q 2009 -100 2413 -844 
z
" transform="scale(0.015625)"/>
       <path id="DejaVuSans-Bold-29" d="M 513 -844 
Q 913 -100 1113 609 
Q 1313 1319 1313 2009 
Q 1313 2700 1113 3408 
Q 913 4116 513 4856 
L 1441 4856 
Q 1916 4091 2145 3389 
Q 2375 2688 2375 2003 
Q 2375 1319 2147 623 
Q 1919 -72 1441 -844 
L 513 -844 
z
" transform="scale(0.015625)"/>
      </defs>
      <use xlink:href="#DejaVuSans-Bold-4c"/>
      <use xlink:href="#DejaVuSans-Bold-6f" transform="translate(63.720703 0)"/>
      <use xlink:href="#DejaVuSans-Bold-63" transform="translate(132.421875 0)"/>
      <use xlink:href="#DejaVuSans-Bold-61" transform="translate(191.699219 0)"/>
      <use xlink:href="#DejaVuSans-Bold-6c" transform="translate(259.179688 0)"/>
      <use xlink:href="#DejaVuSans-Bold-20" transform="translate(293.457031 0)"/>
      <use xlink:href="#DejaVuSans-Bold-53" transform="translate(328.271484 0)"/>
      <use xlink:href="#DejaVuSans-Bold-70" transform="translate(400.292969 0)"/>
      <use xlink:href="#DejaVuSans-Bold-61" transform="translate(471.875 0)"/>
      <use xlink:href="#DejaVuSans-Bold-74" transform="translate(539.355469 0)"/>
      <use xlink:href="#DejaVuSans-Bold-69" transform="translate(587.158203 0)"/>
      <use xlink:href="#DejaVuSans-Bold-61" transform="translate(621.435547 0)"/>
      <use xlink:href="#DejaVuSans-Bold-6c" transform="translate(688.916016 0)"/>
      <use xlink:href="#DejaVuSans-Bold-20" transform="translate(723.193359 0)"/>
      <use xlink:href="#DejaVuSans-Bold-41" transform="translate(758.007812 0)"/>
      <use xlink:href="#DejaVuSans-Bold-73" transform="translate(835.400391 0)"/>
      <use xlink:href="#DejaVuSans-Bold-73" transform="translate(894.921875 0)"/>
      <use xlink:href="#DejaVuSans-Bold-6f" transform="translate(954.443359 0)"/>
      <use xlink:href="#DejaVuSans-Bold-63" transform="translate(1023.144531 0)"/>
      <use xlink:href="#DejaVuSans-Bold-69" transform="translate(1082.421875 0)"/>
      <use xlink:href="#DejaVuSans-Bold-61" transform="translate(1116.699219 0)"/>
      <use xlink:href="#DejaVuSans-Bold-74" transform="translate(1184.179688 0)"/>
      <use xlink:href="#DejaVuSans-Bold-69" transform="translate(1231.982422 0)"/>
      <use xlink:href="#DejaVuSans-Bold-6f" transform="translate(1266.259766 0)"/>
      <use xlink:href="#DejaVuSans-Bold-6e" transform="translate(1334.960938 0)"/>
      <use xlink:href="#DejaVuSans-Bold-20" transform="translate(1406.152344 0)"/>
      <use xlink:href="#DejaVuSans-Bold-50" transform="translate(1440.966797 0)"/>
      <use xlink:href="#DejaVuSans-Bold-65" transform="translate(1514.257812 0)"/>
      <use xlink:href="#DejaVuSans-Bold-6e" transform="translate(1582.080078 0)"/>
      <use xlink:href="#DejaVuSans-Bold-61" transform="translate(1653.271484 0)"/>
      <use xlink:href="#DejaVuSans-Bold-6c" transform="translate(1720.751953 0)"/>
      <use xlink:href="#DejaVuSans-Bold-74" transform="translate(1755.029297 0)"/>
      <use xlink:href="#DejaVuSans-Bold-79" transform="translate(1802.832031 0)"/>
      <use xlink:href="#DejaVuSans-Bold-20" transform="translate(1868.017578 0)"/>
      <use xlink:href="#DejaVuSans-Bold-28" transform="translate(1902.832031 0)"/>
      <use xlink:href="#DejaVuSans-Bold-4c" transform="translate(1948.535156 0)"/>
      <use xlink:href="#DejaVuSans-Bold-53" transform="translate(2012.255859 0)"/>
      <use xlink:href="#DejaVuSans-Bold-41" transform="translate(2084.277344 0)"/>
      <use xlink:href="#DejaVuSans-Bold-50" transform="translate(2161.669922 0)"/>
      <use xlink:href="#DejaVuSans-Bold-29" transform="translate(2234.960938 0)"/>
     </g>
    </g>
   </g>
   <g id="matplotlib.axis_2">
    <g id="ytick_1">
     <g id="line2d_9">
      <path d="M 49.900937 236.490852 
L 704.97707 236.490852 
" clip-path="url(#p721984b982)" style="fill: none; stroke: #cccccc; stroke-linecap: round"/>
     </g>
     <g id="text_10">
      <!-- 0.0 -->
      <g style="fill: #262626" transform="translate(22.9075 240.669993) scale(0.11 -0.11)">
       <use xlink:href="#DejaVuSans-30"/>
       <use xlink:href="#DejaVuSans-2e" transform="translate(63.623047 0)"/>
       <use xlink:href="#DejaVuSans-30" transform="translate(95.410156 0)"/>
      </g>
     </g>
    </g>
    <g id="ytick_2">
     <g id="line2d_10">
      <path d="M 49.900937 206.87115 
L 704.97707 206.87115 
" clip-path="url(#p721984b982)" style="fill: none; stroke: #cccccc; stroke-linecap: round"/>
     </g>
     <g id="text_11">
      <!-- 0.5 -->
      <g style="fill: #262626" transform="translate(22.9075 211.050291) scale(0.11 -0.11)">
       <use xlink:href="#DejaVuSans-30"/>
       <use xlink:href="#DejaVuSans-2e" transform="translate(63.623047 0)"/>
       <use xlink:href="#DejaVuSans-35" transform="translate(95.410156 0)"/>
      </g>
     </g>
    </g>
    <g id="ytick_3">
     <g id="line2d_11">
      <path d="M 49.900937 177.251448 
L 704.97707 177.251448 
" clip-path="url(#p721984b982)" style="fill: none; stroke: #cccccc; stroke-linecap: round"/>
     </g>
     <g id="text_12">
      <!-- 1.0 -->
      <g style="fill: #262626" transform="translate(22.9075 181.430589) scale(0.11 -0.11)">
       <use xlink:href="#DejaVuSans-31"/>
       <use xlink:href="#DejaVuSans-2e" transform="translate(63.623047 0)"/>
       <use xlink:href="#DejaVuSans-30" transform="translate(95.410156 0)"/>
      </g>
     </g>
    </g>
    <g id="ytick_4">
     <g id="line2d_12">
      <path d="M 49.900937 147.631746 
L 704.97707 147.631746 
" clip-path="url(#p721984b982)" style="fill: none; stroke: #cccccc; stroke-linecap: round"/>
     </g>
     <g id="text_13">
      <!-- 1.5 -->
      <g style="fill: #262626" transform="translate(22.9075 151.810886) scale(0.11 -0.11)">
       <use xlink:href="#DejaVuSans-31"/>
       <use xlink:href="#DejaVuSans-2e" transform="translate(63.623047 0)"/>
       <use xlink:href="#DejaVuSans-35" transform="translate(95.410156 0)"/>
      </g>
     </g>
    </g>
    <g id="ytick_5">
     <g id="line2d_13">
      <path d="M 49.900937 118.012044 
L 704.97707 118.012044 
" clip-path="url(#p721984b982)" style="fill: none; stroke: #cccccc; stroke-linecap: round"/>
     </g>
     <g id="text_14">
      <!-- 2.0 -->
      <g style="fill: #262626" transform="translate(22.9075 122.191184) scale(0.11 -0.11)">
       <use xlink:href="#DejaVuSans-32"/>
       <use xlink:href="#DejaVuSans-2e" transform="translate(63.623047 0)"/>
       <use xlink:href="#DejaVuSans-30" transform="translate(95.410156 0)"/>
      </g>
     </g>
    </g>
    <g id="ytick_6">
     <g id="line2d_14">
      <path d="M 49.900937 88.392342 
L 704.97707 88.392342 
" clip-path="url(#p721984b982)" style="fill: none; stroke: #cccccc; stroke-linecap: round"/>
     </g>
     <g id="text_15">
      <!-- 2.5 -->
      <g style="fill: #262626" transform="translate(22.9075 92.571482) scale(0.11 -0.11)">
       <use xlink:href="#DejaVuSans-32"/>
       <use xlink:href="#DejaVuSans-2e" transform="translate(63.623047 0)"/>
       <use xlink:href="#DejaVuSans-35" transform="translate(95.410156 0)"/>
      </g>
     </g>
    </g>
    <g id="ytick_7">
     <g id="line2d_15">
      <path d="M 49.900937 58.772639 
L 704.97707 58.772639 
" clip-path="url(#p721984b982)" style="fill: none; stroke: #cccccc; stroke-linecap: round"/>
     </g>
     <g id="text_16">
      <!-- 3.0 -->
      <g style="fill: #262626" transform="translate(22.9075 62.95178) scale(0.11 -0.11)">
       <defs>
        <path id="DejaVuSans-33" d="M 2597 2516 
Q 3050 2419 3304 2112 
Q 3559 1806 3559 1356 
Q 3559 666 3084 287 
Q 2609 -91 1734 -91 
Q 1441 -91 1130 -33 
Q 819 25 488 141 
L 488 750 
Q 750 597 1062 519 
Q 1375 441 1716 441 
Q 2309 441 2620 675 
Q 2931 909 2931 1356 
Q 2931 1769 2642 2001 
Q 2353 2234 1838 2234 
L 1294 2234 
L 1294 2753 
L 1863 2753 
Q 2328 2753 2575 2939 
Q 2822 3125 2822 3475 
Q 2822 3834 2567 4026 
Q 2313 4219 1838 4219 
Q 1578 4219 1281 4162 
Q 984 4106 628 3988 
L 628 4550 
Q 988 4650 1302 4700 
Q 1616 4750 1894 4750 
Q 2613 4750 3031 4423 
Q 3450 4097 3450 3541 
Q 3450 3153 3228 2886 
Q 3006 2619 2597 2516 
z
" transform="scale(0.015625)"/>
       </defs>
       <use xlink:href="#DejaVuSans-33"/>
       <use xlink:href="#DejaVuSans-2e" transform="translate(63.623047 0)"/>
       <use xlink:href="#DejaVuSans-30" transform="translate(95.410156 0)"/>
      </g>
     </g>
    </g>
    <g id="ytick_8">
     <g id="line2d_16">
      <path d="M 49.900937 29.152937 
L 704.97707 29.152937 
" clip-path="url(#p721984b982)" style="fill: none; stroke: #cccccc; stroke-linecap: round"/>
     </g>
     <g id="text_17">
      <!-- 3.5 -->
      <g style="fill: #262626" transform="translate(22.9075 33.332078) scale(0.11 -0.11)">
       <use xlink:href="#DejaVuSans-33"/>
       <use xlink:href="#DejaVuSans-2e" transform="translate(63.623047 0)"/>
       <use xlink:href="#DejaVuSans-35" transform="translate(95.410156 0)"/>
      </g>
     </g>
    </g>
    <g id="text_18">
     <!-- Density -->
     <g style="fill: #262626" transform="translate(16.318125 155.133239) rotate(-90) scale(0.12 -0.12)">
      <defs>
       <path id="DejaVuSans-Bold-44" d="M 1791 3756 
L 1791 909 
L 2222 909 
Q 2959 909 3348 1275 
Q 3738 1641 3738 2338 
Q 3738 3031 3350 3393 
Q 2963 3756 2222 3756 
L 1791 3756 
z
M 588 4666 
L 1856 4666 
Q 2919 4666 3439 4514 
Q 3959 4363 4331 4000 
Q 4659 3684 4818 3271 
Q 4978 2859 4978 2338 
Q 4978 1809 4818 1395 
Q 4659 981 4331 666 
Q 3956 303 3431 151 
Q 2906 0 1856 0 
L 588 0 
L 588 4666 
z
" transform="scale(0.015625)"/>
      </defs>
      <use xlink:href="#DejaVuSans-Bold-44"/>
      <use xlink:href="#DejaVuSans-Bold-65" transform="translate(83.007812 0)"/>
      <use xlink:href="#DejaVuSans-Bold-6e" transform="translate(150.830078 0)"/>
      <use xlink:href="#DejaVuSans-Bold-73" transform="translate(222.021484 0)"/>
      <use xlink:href="#DejaVuSans-Bold-69" transform="translate(281.542969 0)"/>
      <use xlink:href="#DejaVuSans-Bold-74" transform="translate(315.820312 0)"/>
      <use xlink:href="#DejaVuSans-Bold-79" transform="translate(363.623047 0)"/>
     </g>
    </g>
   </g>
   <g id="FillBetweenPolyCollection_1">
    <defs>
     <path id="m8f9c80b8e6" d="M 79.677125 -43.054476 
L 79.677125 -43.053438 
L 82.669707 -43.053438 
L 85.662289 -43.053438 
L 88.65487 -43.053438 
L 91.647452 -43.053438 
L 94.640034 -43.053438 
L 97.632615 -43.053438 
L 100.625197 -43.053438 
L 103.617779 -43.053438 
L 106.610361 -43.053438 
L 109.602942 -43.053438 
L 112.595524 -43.053438 
L 115.588106 -43.053438 
L 118.580687 -43.053438 
L 121.573269 -43.053438 
L 124.565851 -43.053438 
L 127.558432 -43.053438 
L 130.551014 -43.053438 
L 133.543596 -43.053438 
L 136.536177 -43.053438 
L 139.528759 -43.053438 
L 142.521341 -43.053438 
L 145.513923 -43.053438 
L 148.506504 -43.053438 
L 151.499086 -43.053438 
L 154.491668 -43.053438 
L 157.484249 -43.053438 
L 160.476831 -43.053438 
L 163.469413 -43.053438 
L 166.461994 -43.053438 
L 169.454576 -43.053438 
L 172.447158 -43.053438 
L 175.439739 -43.053438 
L 178.432321 -43.053438 
L 181.424903 -43.053438 
L 184.417485 -43.053438 
L 187.410066 -43.053438 
L 190.402648 -43.053438 
L 193.39523 -43.053438 
L 196.387811 -43.053438 
L 199.380393 -43.053438 
L 202.372975 -43.053438 
L 205.365556 -43.053438 
L 208.358138 -43.053438 
L 211.35072 -43.053438 
L 214.343301 -43.053438 
L 217.335883 -43.053438 
L 220.328465 -43.053438 
L 223.321047 -43.053438 
L 226.313628 -43.053438 
L 229.30621 -43.053438 
L 232.298792 -43.053438 
L 235.291373 -43.053438 
L 238.283955 -43.053438 
L 241.276537 -43.053438 
L 244.269118 -43.053438 
L 247.2617 -43.053438 
L 250.254282 -43.053438 
L 253.246863 -43.053438 
L 256.239445 -43.053438 
L 259.232027 -43.053438 
L 262.224609 -43.053438 
L 265.21719 -43.053438 
L 268.209772 -43.053438 
L 271.202354 -43.053438 
L 274.194935 -43.053438 
L 277.187517 -43.053438 
L 280.180099 -43.053438 
L 283.17268 -43.053438 
L 286.165262 -43.053438 
L 289.157844 -43.053438 
L 292.150425 -43.053438 
L 295.143007 -43.053438 
L 298.135589 -43.053438 
L 301.128171 -43.053438 
L 304.120752 -43.053438 
L 307.113334 -43.053438 
L 310.105916 -43.053438 
L 313.098497 -43.053438 
L 316.091079 -43.053438 
L 319.083661 -43.053438 
L 322.076242 -43.053438 
L 325.068824 -43.053438 
L 328.061406 -43.053438 
L 331.053987 -43.053438 
L 334.046569 -43.053438 
L 337.039151 -43.053438 
L 340.031733 -43.053438 
L 343.024314 -43.053438 
L 346.016896 -43.053438 
L 349.009478 -43.053438 
L 352.002059 -43.053438 
L 354.994641 -43.053438 
L 357.987223 -43.053438 
L 360.979804 -43.053438 
L 363.972386 -43.053438 
L 366.964968 -43.053438 
L 369.957549 -43.053438 
L 372.950131 -43.053438 
L 375.942713 -43.053438 
L 378.935295 -43.053438 
L 381.927876 -43.053438 
L 384.920458 -43.053438 
L 387.91304 -43.053438 
L 390.905621 -43.053438 
L 393.898203 -43.053438 
L 396.890785 -43.053438 
L 399.883366 -43.053438 
L 402.875948 -43.053438 
L 405.86853 -43.053438 
L 408.861111 -43.053438 
L 411.853693 -43.053438 
L 414.846275 -43.053438 
L 417.838857 -43.053438 
L 420.831438 -43.053438 
L 423.82402 -43.053438 
L 426.816602 -43.053438 
L 429.809183 -43.053438 
L 432.801765 -43.053438 
L 435.794347 -43.053438 
L 438.786928 -43.053438 
L 441.77951 -43.053438 
L 444.772092 -43.053438 
L 447.764673 -43.053438 
L 450.757255 -43.053438 
L 453.749837 -43.053438 
L 456.742419 -43.053438 
L 459.735 -43.053438 
L 462.727582 -43.053438 
L 465.720164 -43.053438 
L 468.712745 -43.053438 
L 471.705327 -43.053438 
L 474.697909 -43.053438 
L 477.69049 -43.053438 
L 480.683072 -43.053438 
L 483.675654 -43.053438 
L 486.668235 -43.053438 
L 489.660817 -43.053438 
L 492.653399 -43.053438 
L 495.64598 -43.053438 
L 498.638562 -43.053438 
L 501.631144 -43.053438 
L 504.623726 -43.053438 
L 507.616307 -43.053438 
L 510.608889 -43.053438 
L 513.601471 -43.053438 
L 516.594052 -43.053438 
L 519.586634 -43.053438 
L 522.579216 -43.053438 
L 525.571797 -43.053438 
L 528.564379 -43.053438 
L 531.556961 -43.053438 
L 534.549542 -43.053438 
L 537.542124 -43.053438 
L 540.534706 -43.053438 
L 543.527288 -43.053438 
L 546.519869 -43.053438 
L 549.512451 -43.053438 
L 552.505033 -43.053438 
L 555.497614 -43.053438 
L 558.490196 -43.053438 
L 561.482778 -43.053438 
L 564.475359 -43.053438 
L 567.467941 -43.053438 
L 570.460523 -43.053438 
L 573.453104 -43.053438 
L 576.445686 -43.053438 
L 579.438268 -43.053438 
L 582.43085 -43.053438 
L 585.423431 -43.053438 
L 588.416013 -43.053438 
L 591.408595 -43.053438 
L 594.401176 -43.053438 
L 597.393758 -43.053438 
L 600.38634 -43.053438 
L 603.378921 -43.053438 
L 606.371503 -43.053438 
L 609.364085 -43.053438 
L 612.356666 -43.053438 
L 615.349248 -43.053438 
L 618.34183 -43.053438 
L 621.334412 -43.053438 
L 624.326993 -43.053438 
L 627.319575 -43.053438 
L 630.312157 -43.053438 
L 633.304738 -43.053438 
L 636.29732 -43.053438 
L 639.289902 -43.053438 
L 642.282483 -43.053438 
L 645.275065 -43.053438 
L 648.267647 -43.053438 
L 651.260228 -43.053438 
L 654.25281 -43.053438 
L 657.245392 -43.053438 
L 660.237974 -43.053438 
L 663.230555 -43.053438 
L 666.223137 -43.053438 
L 669.215719 -43.053438 
L 672.2083 -43.053438 
L 675.200882 -43.053438 
L 675.200882 -43.053651 
L 675.200882 -43.053651 
L 672.2083 -43.053799 
L 669.215719 -43.054028 
L 666.223137 -43.054373 
L 663.230555 -43.054873 
L 660.237974 -43.055569 
L 657.245392 -43.056503 
L 654.25281 -43.057707 
L 651.260228 -43.0592 
L 648.267647 -43.060974 
L 645.275065 -43.062996 
L 642.282483 -43.0652 
L 639.289902 -43.067497 
L 636.29732 -43.069783 
L 633.304738 -43.071959 
L 630.312157 -43.07395 
L 627.319575 -43.075725 
L 624.326993 -43.077315 
L 621.334412 -43.078817 
L 618.34183 -43.080394 
L 615.349248 -43.082259 
L 612.356666 -43.084656 
L 609.364085 -43.087837 
L 606.371503 -43.092035 
L 603.378921 -43.09745 
L 600.38634 -43.104229 
L 597.393758 -43.112464 
L 594.401176 -43.122187 
L 591.408595 -43.133367 
L 588.416013 -43.145906 
L 585.423431 -43.159638 
L 582.43085 -43.174324 
L 579.438268 -43.189654 
L 576.445686 -43.205253 
L 573.453104 -43.220698 
L 570.460523 -43.235544 
L 567.467941 -43.24936 
L 564.475359 -43.261769 
L 561.482778 -43.272479 
L 558.490196 -43.281321 
L 555.497614 -43.28826 
L 552.505033 -43.293407 
L 549.512451 -43.29701 
L 546.519869 -43.299448 
L 543.527288 -43.301207 
L 540.534706 -43.30287 
L 537.542124 -43.305089 
L 534.549542 -43.308564 
L 531.556961 -43.314002 
L 528.564379 -43.322072 
L 525.571797 -43.333345 
L 522.579216 -43.348232 
L 519.586634 -43.366926 
L 516.594052 -43.389368 
L 513.601471 -43.415242 
L 510.608889 -43.444005 
L 507.616307 -43.474955 
L 504.623726 -43.507321 
L 501.631144 -43.540353 
L 498.638562 -43.573405 
L 495.64598 -43.605987 
L 492.653399 -43.637788 
L 489.660817 -43.66867 
L 486.668235 -43.698656 
L 483.675654 -43.727921 
L 480.683072 -43.756796 
L 477.69049 -43.785792 
L 474.697909 -43.815627 
L 471.705327 -43.847229 
L 468.712745 -43.881701 
L 465.720164 -43.920223 
L 462.727582 -43.963901 
L 459.735 -44.013583 
L 456.742419 -44.069689 
L 453.749837 -44.132102 
L 450.757255 -44.200165 
L 447.764673 -44.272794 
L 444.772092 -44.348704 
L 441.77951 -44.426689 
L 438.786928 -44.505903 
L 435.794347 -44.586063 
L 432.801765 -44.667527 
L 429.809183 -44.751233 
L 426.816602 -44.838513 
L 423.82402 -44.930836 
L 420.831438 -45.029537 
L 417.838857 -45.1356 
L 414.846275 -45.249521 
L 411.853693 -45.371264 
L 408.861111 -45.500296 
L 405.86853 -45.635661 
L 402.875948 -45.776071 
L 399.883366 -45.919991 
L 396.890785 -46.06572 
L 393.898203 -46.211479 
L 390.905621 -46.355531 
L 387.91304 -46.496329 
L 384.920458 -46.632706 
L 381.927876 -46.764066 
L 378.935295 -46.890554 
L 375.942713 -47.013155 
L 372.950131 -47.133693 
L 369.957549 -47.254719 
L 366.964968 -47.379274 
L 363.972386 -47.510553 
L 360.979804 -47.6515 
L 357.987223 -47.804387 
L 354.994641 -47.970409 
L 352.002059 -48.149377 
L 349.009478 -48.339549 
L 346.016896 -48.537654 
L 343.024314 -48.739132 
L 340.031733 -48.938584 
L 337.039151 -49.130397 
L 334.046569 -49.30945 
L 331.053987 -49.471818 
L 328.061406 -49.615345 
L 325.068824 -49.739999 
L 322.076242 -49.847947 
L 319.083661 -49.943331 
L 316.091079 -50.031779 
L 313.098497 -50.119727 
L 310.105916 -50.213641 
L 307.113334 -50.319266 
L 304.120752 -50.440996 
L 301.128171 -50.581439 
L 298.135589 -50.741246 
L 295.143007 -50.9192 
L 292.150425 -51.112526 
L 289.157844 -51.317378 
L 286.165262 -51.529394 
L 283.17268 -51.744224 
L 280.180099 -51.957953 
L 277.187517 -52.167331 
L 274.194935 -52.369803 
L 271.202354 -52.563342 
L 268.209772 -52.746139 
L 265.21719 -52.916251 
L 262.224609 -53.071292 
L 259.232027 -53.208267 
L 256.239445 -53.323608 
L 253.246863 -53.413428 
L 250.254282 -53.473955 
L 247.2617 -53.502072 
L 244.269118 -53.49584 
L 241.276537 -53.454926 
L 238.283955 -53.380805 
L 235.291373 -53.276727 
L 232.298792 -53.147405 
L 229.30621 -52.998488 
L 226.313628 -52.835868 
L 223.321047 -52.664924 
L 220.328465 -52.489791 
L 217.335883 -52.31275 
L 214.343301 -52.13383 
L 211.35072 -51.95068 
L 208.358138 -51.758761 
L 205.365556 -51.551877 
L 202.372975 -51.322984 
L 199.380393 -51.065225 
L 196.387811 -50.773028 
L 193.39523 -50.443116 
L 190.402648 -50.075263 
L 187.410066 -49.672637 
L 184.417485 -49.24167 
L 181.424903 -48.79144 
L 178.432321 -48.332677 
L 175.439739 -47.876539 
L 172.447158 -47.433387 
L 169.454576 -47.011735 
L 166.461994 -46.617562 
L 163.469413 -46.254039 
L 160.476831 -45.921696 
L 157.484249 -45.618935 
L 154.491668 -45.342746 
L 151.499086 -45.089504 
L 148.506504 -44.855669 
L 145.513923 -44.638326 
L 142.521341 -44.435484 
L 139.528759 -44.246151 
L 136.536177 -44.070209 
L 133.543596 -43.908165 
L 130.551014 -43.760837 
L 127.558432 -43.629044 
L 124.565851 -43.513345 
L 121.573269 -43.413871 
L 118.580687 -43.330239 
L 115.588106 -43.261563 
L 112.595524 -43.206531 
L 109.602942 -43.16353 
L 106.610361 -43.130787 
L 103.617779 -43.1065 
L 100.625197 -43.088961 
L 97.632615 -43.076633 
L 94.640034 -43.068204 
L 91.647452 -43.062597 
L 88.65487 -43.058972 
L 85.662289 -43.056693 
L 82.669707 -43.055302 
L 79.677125 -43.054476 
z
" style="stroke: #e74c3c"/>
    </defs>
    <g clip-path="url(#p721984b982)">
     <use xlink:href="#m8f9c80b8e6" x="0" y="279.54429" style="fill: #e74c3c; fill-opacity: 0.25; stroke: #e74c3c"/>
    </g>
   </g>
   <g id="FillBetweenPolyCollection_2">
    <defs>
     <path id="m9577a8e962" d="M 124.779468 -44.311394 
L 124.779468 -43.053438 
L 125.123863 -43.053438 
L 125.468259 -43.053438 
L 125.812655 -43.053438 
L 126.15705 -43.053438 
L 126.501446 -43.053438 
L 126.845842 -43.053438 
L 127.190237 -43.053438 
L 127.534633 -43.053438 
L 127.879029 -43.053438 
L 128.223424 -43.053438 
L 128.56782 -43.053438 
L 128.912216 -43.053438 
L 129.256611 -43.053438 
L 129.601007 -43.053438 
L 129.945403 -43.053438 
L 130.289798 -43.053438 
L 130.634194 -43.053438 
L 130.97859 -43.053438 
L 131.322985 -43.053438 
L 131.667381 -43.053438 
L 132.011776 -43.053438 
L 132.356172 -43.053438 
L 132.700568 -43.053438 
L 133.044963 -43.053438 
L 133.389359 -43.053438 
L 133.733755 -43.053438 
L 134.07815 -43.053438 
L 134.422546 -43.053438 
L 134.766942 -43.053438 
L 135.111337 -43.053438 
L 135.455733 -43.053438 
L 135.800129 -43.053438 
L 136.144524 -43.053438 
L 136.48892 -43.053438 
L 136.833316 -43.053438 
L 137.177711 -43.053438 
L 137.522107 -43.053438 
L 137.866503 -43.053438 
L 138.210898 -43.053438 
L 138.555294 -43.053438 
L 138.89969 -43.053438 
L 139.244085 -43.053438 
L 139.588481 -43.053438 
L 139.932877 -43.053438 
L 140.277272 -43.053438 
L 140.621668 -43.053438 
L 140.966064 -43.053438 
L 141.310459 -43.053438 
L 141.654855 -43.053438 
L 141.999251 -43.053438 
L 142.343646 -43.053438 
L 142.688042 -43.053438 
L 143.032438 -43.053438 
L 143.376833 -43.053438 
L 143.721229 -43.053438 
L 144.065625 -43.053438 
L 144.41002 -43.053438 
L 144.754416 -43.053438 
L 145.098812 -43.053438 
L 145.443207 -43.053438 
L 145.787603 -43.053438 
L 146.131999 -43.053438 
L 146.476394 -43.053438 
L 146.82079 -43.053438 
L 147.165186 -43.053438 
L 147.509581 -43.053438 
L 147.853977 -43.053438 
L 148.198373 -43.053438 
L 148.542768 -43.053438 
L 148.887164 -43.053438 
L 149.23156 -43.053438 
L 149.575955 -43.053438 
L 149.920351 -43.053438 
L 150.264747 -43.053438 
L 150.609142 -43.053438 
L 150.953538 -43.053438 
L 151.297934 -43.053438 
L 151.642329 -43.053438 
L 151.986725 -43.053438 
L 152.33112 -43.053438 
L 152.675516 -43.053438 
L 153.019912 -43.053438 
L 153.364307 -43.053438 
L 153.708703 -43.053438 
L 154.053099 -43.053438 
L 154.397494 -43.053438 
L 154.74189 -43.053438 
L 155.086286 -43.053438 
L 155.430681 -43.053438 
L 155.775077 -43.053438 
L 156.119473 -43.053438 
L 156.463868 -43.053438 
L 156.808264 -43.053438 
L 157.15266 -43.053438 
L 157.497055 -43.053438 
L 157.841451 -43.053438 
L 158.185847 -43.053438 
L 158.530242 -43.053438 
L 158.874638 -43.053438 
L 159.219034 -43.053438 
L 159.563429 -43.053438 
L 159.907825 -43.053438 
L 160.252221 -43.053438 
L 160.596616 -43.053438 
L 160.941012 -43.053438 
L 161.285408 -43.053438 
L 161.629803 -43.053438 
L 161.974199 -43.053438 
L 162.318595 -43.053438 
L 162.66299 -43.053438 
L 163.007386 -43.053438 
L 163.351782 -43.053438 
L 163.696177 -43.053438 
L 164.040573 -43.053438 
L 164.384969 -43.053438 
L 164.729364 -43.053438 
L 165.07376 -43.053438 
L 165.418156 -43.053438 
L 165.762551 -43.053438 
L 166.106947 -43.053438 
L 166.451343 -43.053438 
L 166.795738 -43.053438 
L 167.140134 -43.053438 
L 167.48453 -43.053438 
L 167.828925 -43.053438 
L 168.173321 -43.053438 
L 168.517717 -43.053438 
L 168.862112 -43.053438 
L 169.206508 -43.053438 
L 169.550904 -43.053438 
L 169.895299 -43.053438 
L 170.239695 -43.053438 
L 170.584091 -43.053438 
L 170.928486 -43.053438 
L 171.272882 -43.053438 
L 171.617278 -43.053438 
L 171.961673 -43.053438 
L 172.306069 -43.053438 
L 172.650465 -43.053438 
L 172.99486 -43.053438 
L 173.339256 -43.053438 
L 173.683651 -43.053438 
L 174.028047 -43.053438 
L 174.372443 -43.053438 
L 174.716838 -43.053438 
L 175.061234 -43.053438 
L 175.40563 -43.053438 
L 175.750025 -43.053438 
L 176.094421 -43.053438 
L 176.438817 -43.053438 
L 176.783212 -43.053438 
L 177.127608 -43.053438 
L 177.472004 -43.053438 
L 177.816399 -43.053438 
L 178.160795 -43.053438 
L 178.505191 -43.053438 
L 178.849586 -43.053438 
L 179.193982 -43.053438 
L 179.538378 -43.053438 
L 179.882773 -43.053438 
L 180.227169 -43.053438 
L 180.571565 -43.053438 
L 180.91596 -43.053438 
L 181.260356 -43.053438 
L 181.604752 -43.053438 
L 181.949147 -43.053438 
L 182.293543 -43.053438 
L 182.637939 -43.053438 
L 182.982334 -43.053438 
L 183.32673 -43.053438 
L 183.671126 -43.053438 
L 184.015521 -43.053438 
L 184.359917 -43.053438 
L 184.704313 -43.053438 
L 185.048708 -43.053438 
L 185.393104 -43.053438 
L 185.7375 -43.053438 
L 186.081895 -43.053438 
L 186.426291 -43.053438 
L 186.770687 -43.053438 
L 187.115082 -43.053438 
L 187.459478 -43.053438 
L 187.803874 -43.053438 
L 188.148269 -43.053438 
L 188.492665 -43.053438 
L 188.837061 -43.053438 
L 189.181456 -43.053438 
L 189.525852 -43.053438 
L 189.870248 -43.053438 
L 190.214643 -43.053438 
L 190.559039 -43.053438 
L 190.903435 -43.053438 
L 191.24783 -43.053438 
L 191.592226 -43.053438 
L 191.936622 -43.053438 
L 192.281017 -43.053438 
L 192.625413 -43.053438 
L 192.969809 -43.053438 
L 193.314204 -43.053438 
L 193.314204 -43.055695 
L 193.314204 -43.055695 
L 192.969809 -43.057693 
L 192.625413 -43.061081 
L 192.281017 -43.066523 
L 191.936622 -43.074787 
L 191.592226 -43.086635 
L 191.24783 -43.102636 
L 190.903435 -43.122926 
L 190.559039 -43.146976 
L 190.214643 -43.173439 
L 189.870248 -43.20016 
L 189.525852 -43.22441 
L 189.181456 -43.243315 
L 188.837061 -43.254411 
L 188.492665 -43.25617 
L 188.148269 -43.248349 
L 187.803874 -43.232043 
L 187.459478 -43.209447 
L 187.115082 -43.183382 
L 186.770687 -43.156748 
L 186.426291 -43.132055 
L 186.081895 -43.111151 
L 185.7375 -43.095177 
L 185.393104 -43.084718 
L 185.048708 -43.080064 
L 184.704313 -43.08148 
L 184.359917 -43.089376 
L 184.015521 -43.104352 
L 183.671126 -43.127071 
L 183.32673 -43.15801 
L 182.982334 -43.197145 
L 182.637939 -43.243673 
L 182.293543 -43.295863 
L 181.949147 -43.351109 
L 181.604752 -43.406216 
L 181.260356 -43.457871 
L 180.91596 -43.50321 
L 180.571565 -43.540339 
L 180.227169 -43.568707 
L 179.882773 -43.589247 
L 179.538378 -43.604254 
L 179.193982 -43.61704 
L 178.849586 -43.631414 
L 178.505191 -43.651082 
L 178.160795 -43.67904 
L 177.816399 -43.717069 
L 177.472004 -43.765405 
L 177.127608 -43.82264 
L 176.783212 -43.885876 
L 176.438817 -43.951067 
L 176.094421 -44.013495 
L 175.750025 -44.068294 
L 175.40563 -44.11096 
L 175.061234 -44.137828 
L 174.716838 -44.146467 
L 174.372443 -44.135965 
L 174.028047 -44.107029 
L 173.683651 -44.061862 
L 173.339256 -44.003831 
L 172.99486 -43.937025 
L 172.650465 -43.865856 
L 172.306069 -43.794839 
L 171.961673 -43.728589 
L 171.617278 -43.671945 
L 171.272882 -43.630014 
L 170.928486 -43.607941 
L 170.584091 -43.610284 
L 170.239695 -43.640081 
L 169.895299 -43.697857 
L 169.550904 -43.780926 
L 169.206508 -43.883316 
L 168.862112 -43.996479 
L 168.517717 -44.110699 
L 168.173321 -44.21689 
L 167.828925 -44.308325 
L 167.48453 -44.381872 
L 167.140134 -44.438432 
L 166.795738 -44.48254 
L 166.451343 -44.521276 
L 166.106947 -44.562803 
L 165.762551 -44.614835 
L 165.418156 -44.683309 
L 165.07376 -44.771398 
L 164.729364 -44.878937 
L 164.384969 -45.002267 
L 164.040573 -45.134541 
L 163.696177 -45.266523 
L 163.351782 -45.387917 
L 163.007386 -45.489156 
L 162.66299 -45.563431 
L 162.318595 -45.608578 
L 161.974199 -45.628365 
L 161.629803 -45.632757 
L 161.285408 -45.636995 
L 160.941012 -45.659598 
L 160.596616 -45.719661 
L 160.252221 -45.833966 
L 159.907825 -46.014385 
L 159.563429 -46.265907 
L 159.219034 -46.585518 
L 158.874638 -46.962074 
L 158.530242 -47.377283 
L 158.185847 -47.807899 
L 157.841451 -48.228999 
L 157.497055 -48.617949 
L 157.15266 -48.958307 
L 156.808264 -49.242757 
L 156.463868 -49.474244 
L 156.119473 -49.66493 
L 155.775077 -49.83319 
L 155.430681 -49.999468 
L 155.086286 -50.182145 
L 154.74189 -50.394555 
L 154.397494 -50.643899 
L 154.053099 -50.932138 
L 153.708703 -51.258279 
L 153.364307 -51.621006 
L 153.019912 -52.02051 
L 152.675516 -52.458728 
L 152.33112 -52.937868 
L 151.986725 -53.457814 
L 151.642329 -54.013516 
L 151.297934 -54.593553 
L 150.953538 -55.180703 
L 150.609142 -55.754686 
L 150.264747 -56.296487 
L 149.920351 -56.793113 
L 149.575955 -57.241375 
L 149.23156 -57.649505 
L 148.887164 -58.036003 
L 148.542768 -58.425966 
L 148.198373 -58.84599 
L 147.853977 -59.319247 
L 147.509581 -59.862308 
L 147.165186 -60.484598 
L 146.82079 -61.190347 
L 146.476394 -61.981913 
L 146.131999 -62.862895 
L 145.787603 -63.839689 
L 145.443207 -64.921043 
L 145.098812 -66.116111 
L 144.754416 -67.432187 
L 144.41002 -68.873192 
L 144.065625 -70.439436 
L 143.721229 -72.128322 
L 143.376833 -73.935204 
L 143.032438 -75.853601 
L 142.688042 -77.874473 
L 142.343646 -79.984874 
L 141.999251 -82.166718 
L 141.654855 -84.396458 
L 141.310459 -86.646215 
L 140.966064 -88.886525 
L 140.621668 -91.090449 
L 140.277272 -93.238508 
L 139.932877 -95.323619 
L 139.588481 -97.355058 
L 139.244085 -99.360455 
L 138.89969 -101.385089 
L 138.555294 -103.488228 
L 138.210898 -105.736937 
L 137.866503 -108.198433 
L 137.522107 -110.932433 
L 137.177711 -113.985053 
L 136.833316 -117.385512 
L 136.48892 -121.146433 
L 136.144524 -125.267898 
L 135.800129 -129.744771 
L 135.455733 -134.576192 
L 135.111337 -139.775658 
L 134.766942 -145.379784 
L 134.422546 -151.453695 
L 134.07815 -158.090976 
L 133.733755 -165.405879 
L 133.389359 -173.515069 
L 133.044963 -182.505884 
L 132.700568 -192.388997 
L 132.356172 -203.036866 
L 132.011776 -214.116316 
L 131.667381 -225.032951 
L 131.322985 -234.913028 
L 130.97859 -242.649427 
L 130.634194 -247.027463 
L 130.289798 -246.923258 
L 129.945403 -241.538231 
L 129.601007 -230.609954 
L 129.256611 -214.534225 
L 128.912216 -194.352121 
L 128.56782 -171.594534 
L 128.223424 -148.021107 
L 127.879029 -125.322832 
L 127.534633 -104.865217 
L 127.190237 -87.530108 
L 126.845842 -73.678547 
L 126.501446 -63.219769 
L 126.15705 -55.746029 
L 125.812655 -50.685801 
L 125.468259 -47.436697 
L 125.123863 -45.456889 
L 124.779468 -44.311394 
z
" style="stroke: #3498db"/>
    </defs>
    <g clip-path="url(#p721984b982)">
     <use xlink:href="#m9577a8e962" x="0" y="279.54429" style="fill: #3498db; fill-opacity: 0.25; stroke: #3498db"/>
    </g>
   </g>
   <g id="patch_3">
    <path d="M 49.900937 236.490852 
L 49.900937 22.318125 
" style="fill: none; stroke: #cccccc; stroke-width: 1.25; stroke-linejoin: miter; stroke-linecap: square"/>
   </g>
   <g id="patch_4">
    <path d="M 704.97707 236.490852 
L 704.97707 22.318125 
" style="fill: none; stroke: #cccccc; stroke-width: 1.25; stroke-linejoin: miter; stroke-linecap: square"/>
   </g>
   <g id="patch_5">
    <path d="M 49.900938 236.490852 
L 704.97707 236.490852 
" style="fill: none; stroke: #cccccc; stroke-width: 1.25; stroke-linejoin: miter; stroke-linecap: square"/>
   </g>
   <g id="patch_6">
    <path d="M 49.900938 22.318125 
L 704.97707 22.318125 
" style="fill: none; stroke: #cccccc; stroke-width: 1.25; stroke-linejoin: miter; stroke-linecap: square"/>
   </g>
   <g id="text_19">
    <!-- Structural Uncertainty: Random Baseline vs JFI-Only Optimization -->
    <g style="fill: #262626" transform="translate(154.884004 16.318125) scale(0.12 -0.12)">
     <defs>
      <path id="DejaVuSans-Bold-72" d="M 3138 2547 
Q 2991 2616 2845 2648 
Q 2700 2681 2553 2681 
Q 2122 2681 1889 2404 
Q 1656 2128 1656 1613 
L 1656 0 
L 538 0 
L 538 3500 
L 1656 3500 
L 1656 2925 
Q 1872 3269 2151 3426 
Q 2431 3584 2822 3584 
Q 2878 3584 2943 3579 
Q 3009 3575 3134 3559 
L 3138 2547 
z
" transform="scale(0.015625)"/>
      <path id="DejaVuSans-Bold-75" d="M 500 1363 
L 500 3500 
L 1625 3500 
L 1625 3150 
Q 1625 2866 1622 2436 
Q 1619 2006 1619 1863 
Q 1619 1441 1641 1255 
Q 1663 1069 1716 984 
Q 1784 875 1895 815 
Q 2006 756 2150 756 
Q 2500 756 2700 1025 
Q 2900 1294 2900 1772 
L 2900 3500 
L 4019 3500 
L 4019 0 
L 2900 0 
L 2900 506 
Q 2647 200 2364 54 
Q 2081 -91 1741 -91 
Q 1134 -91 817 281 
Q 500 653 500 1363 
z
" transform="scale(0.015625)"/>
      <path id="DejaVuSans-Bold-55" d="M 588 4666 
L 1791 4666 
L 1791 1869 
Q 1791 1291 1980 1042 
Q 2169 794 2597 794 
Q 3028 794 3217 1042 
Q 3406 1291 3406 1869 
L 3406 4666 
L 4609 4666 
L 4609 1869 
Q 4609 878 4112 393 
Q 3616 -91 2597 -91 
Q 1581 -91 1084 393 
Q 588 878 588 1869 
L 588 4666 
z
" transform="scale(0.015625)"/>
      <path id="DejaVuSans-Bold-3a" d="M 716 3500 
L 1844 3500 
L 1844 2291 
L 716 2291 
L 716 3500 
z
M 716 1209 
L 1844 1209 
L 1844 0 
L 716 0 
L 716 1209 
z
" transform="scale(0.015625)"/>
      <path id="DejaVuSans-Bold-52" d="M 2297 2597 
Q 2675 2597 2839 2737 
Q 3003 2878 3003 3200 
Q 3003 3519 2839 3656 
Q 2675 3794 2297 3794 
L 1791 3794 
L 1791 2597 
L 2297 2597 
z
M 1791 1766 
L 1791 0 
L 588 0 
L 588 4666 
L 2425 4666 
Q 3347 4666 3776 4356 
Q 4206 4047 4206 3378 
Q 4206 2916 3982 2619 
Q 3759 2322 3309 2181 
Q 3556 2125 3751 1926 
Q 3947 1728 4147 1325 
L 4800 0 
L 3519 0 
L 2950 1159 
Q 2778 1509 2601 1637 
Q 2425 1766 2131 1766 
L 1791 1766 
z
" transform="scale(0.015625)"/>
      <path id="DejaVuSans-Bold-64" d="M 2919 2988 
L 2919 4863 
L 4044 4863 
L 4044 0 
L 2919 0 
L 2919 506 
Q 2688 197 2409 53 
Q 2131 -91 1766 -91 
Q 1119 -91 703 423 
Q 288 938 288 1747 
Q 288 2556 703 3070 
Q 1119 3584 1766 3584 
Q 2128 3584 2408 3439 
Q 2688 3294 2919 2988 
z
M 2181 722 
Q 2541 722 2730 984 
Q 2919 1247 2919 1747 
Q 2919 2247 2730 2509 
Q 2541 2772 2181 2772 
Q 1825 2772 1636 2509 
Q 1447 2247 1447 1747 
Q 1447 1247 1636 984 
Q 1825 722 2181 722 
z
" transform="scale(0.015625)"/>
      <path id="DejaVuSans-Bold-6d" d="M 3781 2919 
Q 3994 3244 4286 3414 
Q 4578 3584 4928 3584 
Q 5531 3584 5847 3212 
Q 6163 2841 6163 2131 
L 6163 0 
L 5038 0 
L 5038 1825 
Q 5041 1866 5042 1909 
Q 5044 1953 5044 2034 
Q 5044 2406 4934 2573 
Q 4825 2741 4581 2741 
Q 4263 2741 4089 2478 
Q 3916 2216 3909 1719 
L 3909 0 
L 2784 0 
L 2784 1825 
Q 2784 2406 2684 2573 
Q 2584 2741 2328 2741 
Q 2006 2741 1831 2477 
Q 1656 2213 1656 1722 
L 1656 0 
L 531 0 
L 531 3500 
L 1656 3500 
L 1656 2988 
Q 1863 3284 2130 3434 
Q 2397 3584 2719 3584 
Q 3081 3584 3359 3409 
Q 3638 3234 3781 2919 
z
" transform="scale(0.015625)"/>
      <path id="DejaVuSans-Bold-42" d="M 2456 2859 
Q 2741 2859 2887 2984 
Q 3034 3109 3034 3353 
Q 3034 3594 2887 3720 
Q 2741 3847 2456 3847 
L 1791 3847 
L 1791 2859 
L 2456 2859 
z
M 2497 819 
Q 2859 819 3042 972 
Q 3225 1125 3225 1434 
Q 3225 1738 3044 1889 
Q 2863 2041 2497 2041 
L 1791 2041 
L 1791 819 
L 2497 819 
z
M 3616 2497 
Q 4003 2384 4215 2081 
Q 4428 1778 4428 1338 
Q 4428 663 3972 331 
Q 3516 0 2584 0 
L 588 0 
L 588 4666 
L 2394 4666 
Q 3366 4666 3802 4372 
Q 4238 4078 4238 3431 
Q 4238 3091 4078 2852 
Q 3919 2613 3616 2497 
z
" transform="scale(0.015625)"/>
      <path id="DejaVuSans-Bold-76" d="M 97 3500 
L 1216 3500 
L 2088 1081 
L 2956 3500 
L 4078 3500 
L 2700 0 
L 1472 0 
L 97 3500 
z
" transform="scale(0.015625)"/>
      <path id="DejaVuSans-Bold-4a" d="M 588 4666 
L 1791 4666 
L 1791 453 
Q 1791 -419 1317 -850 
Q 844 -1281 -116 -1281 
L -359 -1281 
L -359 -372 
L -172 -372 
Q 203 -372 395 -162 
Q 588 47 588 453 
L 588 4666 
z
" transform="scale(0.015625)"/>
      <path id="DejaVuSans-Bold-46" d="M 588 4666 
L 3834 4666 
L 3834 3756 
L 1791 3756 
L 1791 2888 
L 3713 2888 
L 3713 1978 
L 1791 1978 
L 1791 0 
L 588 0 
L 588 4666 
z
" transform="scale(0.015625)"/>
      <path id="DejaVuSans-Bold-49" d="M 588 4666 
L 1791 4666 
L 1791 0 
L 588 0 
L 588 4666 
z
" transform="scale(0.015625)"/>
      <path id="DejaVuSans-Bold-2d" d="M 347 2297 
L 2309 2297 
L 2309 1388 
L 347 1388 
L 347 2297 
z
" transform="scale(0.015625)"/>
      <path id="DejaVuSans-Bold-4f" d="M 2719 3878 
Q 2169 3878 1866 3472 
Q 1563 3066 1563 2328 
Q 1563 1594 1866 1187 
Q 2169 781 2719 781 
Q 3272 781 3575 1187 
Q 3878 1594 3878 2328 
Q 3878 3066 3575 3472 
Q 3272 3878 2719 3878 
z
M 2719 4750 
Q 3844 4750 4481 4106 
Q 5119 3463 5119 2328 
Q 5119 1197 4481 553 
Q 3844 -91 2719 -91 
Q 1597 -91 958 553 
Q 319 1197 319 2328 
Q 319 3463 958 4106 
Q 1597 4750 2719 4750 
z
" transform="scale(0.015625)"/>
      <path id="DejaVuSans-Bold-7a" d="M 366 3500 
L 3419 3500 
L 3419 2719 
L 1575 800 
L 3419 800 
L 3419 0 
L 288 0 
L 288 781 
L 2131 2700 
L 366 2700 
L 366 3500 
z
" transform="scale(0.015625)"/>
     </defs>
     <use xlink:href="#DejaVuSans-Bold-53"/>
     <use xlink:href="#DejaVuSans-Bold-74" transform="translate(72.021484 0)"/>
     <use xlink:href="#DejaVuSans-Bold-72" transform="translate(119.824219 0)"/>
     <use xlink:href="#DejaVuSans-Bold-75" transform="translate(169.140625 0)"/>
     <use xlink:href="#DejaVuSans-Bold-63" transform="translate(240.332031 0)"/>
     <use xlink:href="#DejaVuSans-Bold-74" transform="translate(299.609375 0)"/>
     <use xlink:href="#DejaVuSans-Bold-75" transform="translate(347.412109 0)"/>
     <use xlink:href="#DejaVuSans-Bold-72" transform="translate(418.603516 0)"/>
     <use xlink:href="#DejaVuSans-Bold-61" transform="translate(467.919922 0)"/>
     <use xlink:href="#DejaVuSans-Bold-6c" transform="translate(535.400391 0)"/>
     <use xlink:href="#DejaVuSans-Bold-20" transform="translate(569.677734 0)"/>
     <use xlink:href="#DejaVuSans-Bold-55" transform="translate(604.492188 0)"/>
     <use xlink:href="#DejaVuSans-Bold-6e" transform="translate(685.693359 0)"/>
     <use xlink:href="#DejaVuSans-Bold-63" transform="translate(756.884766 0)"/>
     <use xlink:href="#DejaVuSans-Bold-65" transform="translate(816.162109 0)"/>
     <use xlink:href="#DejaVuSans-Bold-72" transform="translate(883.984375 0)"/>
     <use xlink:href="#DejaVuSans-Bold-74" transform="translate(933.300781 0)"/>
     <use xlink:href="#DejaVuSans-Bold-61" transform="translate(981.103516 0)"/>
     <use xlink:href="#DejaVuSans-Bold-69" transform="translate(1048.583984 0)"/>
     <use xlink:href="#DejaVuSans-Bold-6e" transform="translate(1082.861328 0)"/>
     <use xlink:href="#DejaVuSans-Bold-74" transform="translate(1154.052734 0)"/>
     <use xlink:href="#DejaVuSans-Bold-79" transform="translate(1201.855469 0)"/>
     <use xlink:href="#DejaVuSans-Bold-3a" transform="translate(1267.041016 0)"/>
     <use xlink:href="#DejaVuSans-Bold-20" transform="translate(1307.03125 0)"/>
     <use xlink:href="#DejaVuSans-Bold-52" transform="translate(1341.845703 0)"/>
     <use xlink:href="#DejaVuSans-Bold-61" transform="translate(1418.847656 0)"/>
     <use xlink:href="#DejaVuSans-Bold-6e" transform="translate(1486.328125 0)"/>
     <use xlink:href="#DejaVuSans-Bold-64" transform="translate(1557.519531 0)"/>
     <use xlink:href="#DejaVuSans-Bold-6f" transform="translate(1629.101562 0)"/>
     <use xlink:href="#DejaVuSans-Bold-6d" transform="translate(1697.802734 0)"/>
     <use xlink:href="#DejaVuSans-Bold-20" transform="translate(1802.001953 0)"/>
     <use xlink:href="#DejaVuSans-Bold-42" transform="translate(1836.816406 0)"/>
     <use xlink:href="#DejaVuSans-Bold-61" transform="translate(1913.037109 0)"/>
     <use xlink:href="#DejaVuSans-Bold-73" transform="translate(1980.517578 0)"/>
     <use xlink:href="#DejaVuSans-Bold-65" transform="translate(2040.039062 0)"/>
     <use xlink:href="#DejaVuSans-Bold-6c" transform="translate(2107.861328 0)"/>
     <use xlink:href="#DejaVuSans-Bold-69" transform="translate(2142.138672 0)"/>
     <use xlink:href="#DejaVuSans-Bold-6e" transform="translate(2176.416016 0)"/>
     <use xlink:href="#DejaVuSans-Bold-65" transform="translate(2247.607422 0)"/>
     <use xlink:href="#DejaVuSans-Bold-20" transform="translate(2315.429688 0)"/>
     <use xlink:href="#DejaVuSans-Bold-76" transform="translate(2350.244141 0)"/>
     <use xlink:href="#DejaVuSans-Bold-73" transform="translate(2415.429688 0)"/>
     <use xlink:href="#DejaVuSans-Bold-20" transform="translate(2474.951172 0)"/>
     <use xlink:href="#DejaVuSans-Bold-4a" transform="translate(2509.765625 0)"/>
     <use xlink:href="#DejaVuSans-Bold-46" transform="translate(2546.972656 0)"/>
     <use xlink:href="#DejaVuSans-Bold-49" transform="translate(2615.283203 0)"/>
     <use xlink:href="#DejaVuSans-Bold-2d" transform="translate(2652.490234 0)"/>
     <use xlink:href="#DejaVuSans-Bold-4f" transform="translate(2693.994141 0)"/>
     <use xlink:href="#DejaVuSans-Bold-6e" transform="translate(2779.003906 0)"/>
     <use xlink:href="#DejaVuSans-Bold-6c" transform="translate(2850.195312 0)"/>
     <use xlink:href="#DejaVuSans-Bold-79" transform="translate(2884.472656 0)"/>
     <use xlink:href="#DejaVuSans-Bold-20" transform="translate(2949.658203 0)"/>
     <use xlink:href="#DejaVuSans-Bold-4f" transform="translate(2984.472656 0)"/>
     <use xlink:href="#DejaVuSans-Bold-70" transform="translate(3069.482422 0)"/>
     <use xlink:href="#DejaVuSans-Bold-74" transform="translate(3141.064453 0)"/>
     <use xlink:href="#DejaVuSans-Bold-69" transform="translate(3188.867188 0)"/>
     <use xlink:href="#DejaVuSans-Bold-6d" transform="translate(3223.144531 0)"/>
     <use xlink:href="#DejaVuSans-Bold-69" transform="translate(3327.34375 0)"/>
     <use xlink:href="#DejaVuSans-Bold-7a" transform="translate(3361.621094 0)"/>
     <use xlink:href="#DejaVuSans-Bold-61" transform="translate(3419.824219 0)"/>
     <use xlink:href="#DejaVuSans-Bold-74" transform="translate(3487.304688 0)"/>
     <use xlink:href="#DejaVuSans-Bold-69" transform="translate(3535.107422 0)"/>
     <use xlink:href="#DejaVuSans-Bold-6f" transform="translate(3569.384766 0)"/>
     <use xlink:href="#DejaVuSans-Bold-6e" transform="translate(3638.085938 0)"/>
    </g>
   </g>
   <g id="legend_1">
    <g id="patch_7">
     <path d="M 527.123632 82.52375 
L 699.27707 82.52375 
Q 701.47707 82.52375 701.47707 80.32375 
L 701.47707 32.018125 
Q 701.47707 29.818125 699.27707 29.818125 
L 527.123632 29.818125 
Q 524.923632 29.818125 524.923632 32.018125 
L 524.923632 80.32375 
Q 524.923632 82.52375 527.123632 82.52375 
z
" style="fill: #4d4d4d; opacity: 0.5; stroke: #4d4d4d; stroke-linejoin: miter"/>
    </g>
    <g id="patch_8">
     <path d="M 525.123632 80.52375 
L 697.27707 80.52375 
Q 699.47707 80.52375 699.47707 78.32375 
L 699.47707 30.018125 
Q 699.47707 27.818125 697.27707 27.818125 
L 525.123632 27.818125 
Q 522.923632 27.818125 522.923632 30.018125 
L 522.923632 78.32375 
Q 522.923632 80.52375 525.123632 80.52375 
z
" style="fill: #ffffff; stroke: #cccccc; stroke-linejoin: miter"/>
    </g>
    <g id="text_20">
     <!-- Structural Scenarios -->
     <g style="fill: #262626" transform="translate(541.955664 41.33625) scale(0.12 -0.12)">
      <use xlink:href="#DejaVuSans-Bold-53"/>
      <use xlink:href="#DejaVuSans-Bold-74" transform="translate(72.021484 0)"/>
      <use xlink:href="#DejaVuSans-Bold-72" transform="translate(119.824219 0)"/>
      <use xlink:href="#DejaVuSans-Bold-75" transform="translate(169.140625 0)"/>
      <use xlink:href="#DejaVuSans-Bold-63" transform="translate(240.332031 0)"/>
      <use xlink:href="#DejaVuSans-Bold-74" transform="translate(299.609375 0)"/>
      <use xlink:href="#DejaVuSans-Bold-75" transform="translate(347.412109 0)"/>
      <use xlink:href="#DejaVuSans-Bold-72" transform="translate(418.603516 0)"/>
      <use xlink:href="#DejaVuSans-Bold-61" transform="translate(467.919922 0)"/>
      <use xlink:href="#DejaVuSans-Bold-6c" transform="translate(535.400391 0)"/>
      <use xlink:href="#DejaVuSans-Bold-20" transform="translate(569.677734 0)"/>
      <use xlink:href="#DejaVuSans-Bold-53" transform="translate(604.492188 0)"/>
      <use xlink:href="#DejaVuSans-Bold-63" transform="translate(676.513672 0)"/>
      <use xlink:href="#DejaVuSans-Bold-65" transform="translate(735.791016 0)"/>
      <use xlink:href="#DejaVuSans-Bold-6e" transform="translate(803.613281 0)"/>
      <use xlink:href="#DejaVuSans-Bold-61" transform="translate(874.804688 0)"/>
      <use xlink:href="#DejaVuSans-Bold-72" transform="translate(942.285156 0)"/>
      <use xlink:href="#DejaVuSans-Bold-69" transform="translate(991.601562 0)"/>
      <use xlink:href="#DejaVuSans-Bold-6f" transform="translate(1025.878906 0)"/>
      <use xlink:href="#DejaVuSans-Bold-73" transform="translate(1094.580078 0)"/>
     </g>
    </g>
    <g id="patch_9">
     <path d="M 527.323632 57.690156 
L 549.323632 57.690156 
L 549.323632 49.990156 
L 527.323632 49.990156 
z
" style="fill: #e74c3c; fill-opacity: 0.25; stroke: #e74c3c; stroke-linejoin: miter"/>
    </g>
    <g id="text_21">
     <!-- C0 (JFI-Only) -->
     <g style="fill: #262626" transform="translate(558.123632 57.690156) scale(0.11 -0.11)">
      <defs>
       <path id="DejaVuSans-43" d="M 4122 4306 
L 4122 3641 
Q 3803 3938 3442 4084 
Q 3081 4231 2675 4231 
Q 1875 4231 1450 3742 
Q 1025 3253 1025 2328 
Q 1025 1406 1450 917 
Q 1875 428 2675 428 
Q 3081 428 3442 575 
Q 3803 722 4122 1019 
L 4122 359 
Q 3791 134 3420 21 
Q 3050 -91 2638 -91 
Q 1578 -91 968 557 
Q 359 1206 359 2328 
Q 359 3453 968 4101 
Q 1578 4750 2638 4750 
Q 3056 4750 3426 4639 
Q 3797 4528 4122 4306 
z
" transform="scale(0.015625)"/>
       <path id="DejaVuSans-20" transform="scale(0.015625)"/>
       <path id="DejaVuSans-28" d="M 1984 4856 
Q 1566 4138 1362 3434 
Q 1159 2731 1159 2009 
Q 1159 1288 1364 580 
Q 1569 -128 1984 -844 
L 1484 -844 
Q 1016 -109 783 600 
Q 550 1309 550 2009 
Q 550 2706 781 3412 
Q 1013 4119 1484 4856 
L 1984 4856 
z
" transform="scale(0.015625)"/>
       <path id="DejaVuSans-4a" d="M 628 4666 
L 1259 4666 
L 1259 325 
Q 1259 -519 939 -900 
Q 619 -1281 -91 -1281 
L -331 -1281 
L -331 -750 
L -134 -750 
Q 284 -750 456 -515 
Q 628 -281 628 325 
L 628 4666 
z
" transform="scale(0.015625)"/>
       <path id="DejaVuSans-46" d="M 628 4666 
L 3309 4666 
L 3309 4134 
L 1259 4134 
L 1259 2759 
L 3109 2759 
L 3109 2228 
L 1259 2228 
L 1259 0 
L 628 0 
L 628 4666 
z
" transform="scale(0.015625)"/>
       <path id="DejaVuSans-49" d="M 628 4666 
L 1259 4666 
L 1259 0 
L 628 0 
L 628 4666 
z
" transform="scale(0.015625)"/>
       <path id="DejaVuSans-2d" d="M 313 2009 
L 1997 2009 
L 1997 1497 
L 313 1497 
L 313 2009 
z
" transform="scale(0.015625)"/>
       <path id="DejaVuSans-4f" d="M 2522 4238 
Q 1834 4238 1429 3725 
Q 1025 3213 1025 2328 
Q 1025 1447 1429 934 
Q 1834 422 2522 422 
Q 3209 422 3611 934 
Q 4013 1447 4013 2328 
Q 4013 3213 3611 3725 
Q 3209 4238 2522 4238 
z
M 2522 4750 
Q 3503 4750 4090 4092 
Q 4678 3434 4678 2328 
Q 4678 1225 4090 567 
Q 3503 -91 2522 -91 
Q 1538 -91 948 565 
Q 359 1222 359 2328 
Q 359 3434 948 4092 
Q 1538 4750 2522 4750 
z
" transform="scale(0.015625)"/>
       <path id="DejaVuSans-6e" d="M 3513 2113 
L 3513 0 
L 2938 0 
L 2938 2094 
Q 2938 2591 2744 2837 
Q 2550 3084 2163 3084 
Q 1697 3084 1428 2787 
Q 1159 2491 1159 1978 
L 1159 0 
L 581 0 
L 581 3500 
L 1159 3500 
L 1159 2956 
Q 1366 3272 1645 3428 
Q 1925 3584 2291 3584 
Q 2894 3584 3203 3211 
Q 3513 2838 3513 2113 
z
" transform="scale(0.015625)"/>
       <path id="DejaVuSans-6c" d="M 603 4863 
L 1178 4863 
L 1178 0 
L 603 0 
L 603 4863 
z
" transform="scale(0.015625)"/>
       <path id="DejaVuSans-79" d="M 2059 -325 
Q 1816 -950 1584 -1140 
Q 1353 -1331 966 -1331 
L 506 -1331 
L 506 -850 
L 844 -850 
Q 1081 -850 1212 -737 
Q 1344 -625 1503 -206 
L 1606 56 
L 191 3500 
L 800 3500 
L 1894 763 
L 2988 3500 
L 3597 3500 
L 2059 -325 
z
" transform="scale(0.015625)"/>
       <path id="DejaVuSans-29" d="M 513 4856 
L 1013 4856 
Q 1481 4119 1714 3412 
Q 1947 2706 1947 2009 
Q 1947 1309 1714 600 
Q 1481 -109 1013 -844 
L 513 -844 
Q 928 -128 1133 580 
Q 1338 1288 1338 2009 
Q 1338 2731 1133 3434 
Q 928 4138 513 4856 
z
" transform="scale(0.015625)"/>
      </defs>
      <use xlink:href="#DejaVuSans-43"/>
      <use xlink:href="#DejaVuSans-30" transform="translate(69.824219 0)"/>
      <use xlink:href="#DejaVuSans-20" transform="translate(133.447266 0)"/>
      <use xlink:href="#DejaVuSans-28" transform="translate(165.234375 0)"/>
      <use xlink:href="#DejaVuSans-4a" transform="translate(204.248047 0)"/>
      <use xlink:href="#DejaVuSans-46" transform="translate(233.740234 0)"/>
      <use xlink:href="#DejaVuSans-49" transform="translate(291.259766 0)"/>
      <use xlink:href="#DejaVuSans-2d" transform="translate(320.751953 0)"/>
      <use xlink:href="#DejaVuSans-4f" transform="translate(359.585938 0)"/>
      <use xlink:href="#DejaVuSans-6e" transform="translate(438.296875 0)"/>
      <use xlink:href="#DejaVuSans-6c" transform="translate(501.675781 0)"/>
      <use xlink:href="#DejaVuSans-79" transform="translate(529.458984 0)"/>
      <use xlink:href="#DejaVuSans-29" transform="translate(588.638672 0)"/>
     </g>
    </g>
    <g id="patch_10">
     <path d="M 527.323632 73.836094 
L 549.323632 73.836094 
L 549.323632 66.136094 
L 527.323632 66.136094 
z
" style="fill: #3498db; fill-opacity: 0.25; stroke: #3498db; stroke-linejoin: miter"/>
    </g>
    <g id="text_22">
     <!-- Random Search Baseline -->
     <g style="fill: #262626" transform="translate(558.123632 73.836094) scale(0.11 -0.11)">
      <defs>
       <path id="DejaVuSans-52" d="M 2841 2188 
Q 3044 2119 3236 1894 
Q 3428 1669 3622 1275 
L 4263 0 
L 3584 0 
L 2988 1197 
Q 2756 1666 2539 1819 
Q 2322 1972 1947 1972 
L 1259 1972 
L 1259 0 
L 628 0 
L 628 4666 
L 2053 4666 
Q 2853 4666 3247 4331 
Q 3641 3997 3641 3322 
Q 3641 2881 3436 2590 
Q 3231 2300 2841 2188 
z
M 1259 4147 
L 1259 2491 
L 2053 2491 
Q 2509 2491 2742 2702 
Q 2975 2913 2975 3322 
Q 2975 3731 2742 3939 
Q 2509 4147 2053 4147 
L 1259 4147 
z
" transform="scale(0.015625)"/>
       <path id="DejaVuSans-61" d="M 2194 1759 
Q 1497 1759 1228 1600 
Q 959 1441 959 1056 
Q 959 750 1161 570 
Q 1363 391 1709 391 
Q 2188 391 2477 730 
Q 2766 1069 2766 1631 
L 2766 1759 
L 2194 1759 
z
M 3341 1997 
L 3341 0 
L 2766 0 
L 2766 531 
Q 2569 213 2275 61 
Q 1981 -91 1556 -91 
Q 1019 -91 701 211 
Q 384 513 384 1019 
Q 384 1609 779 1909 
Q 1175 2209 1959 2209 
L 2766 2209 
L 2766 2266 
Q 2766 2663 2505 2880 
Q 2244 3097 1772 3097 
Q 1472 3097 1187 3025 
Q 903 2953 641 2809 
L 641 3341 
Q 956 3463 1253 3523 
Q 1550 3584 1831 3584 
Q 2591 3584 2966 3190 
Q 3341 2797 3341 1997 
z
" transform="scale(0.015625)"/>
       <path id="DejaVuSans-64" d="M 2906 2969 
L 2906 4863 
L 3481 4863 
L 3481 0 
L 2906 0 
L 2906 525 
Q 2725 213 2448 61 
Q 2172 -91 1784 -91 
Q 1150 -91 751 415 
Q 353 922 353 1747 
Q 353 2572 751 3078 
Q 1150 3584 1784 3584 
Q 2172 3584 2448 3432 
Q 2725 3281 2906 2969 
z
M 947 1747 
Q 947 1113 1208 752 
Q 1469 391 1925 391 
Q 2381 391 2643 752 
Q 2906 1113 2906 1747 
Q 2906 2381 2643 2742 
Q 2381 3103 1925 3103 
Q 1469 3103 1208 2742 
Q 947 2381 947 1747 
z
" transform="scale(0.015625)"/>
       <path id="DejaVuSans-6f" d="M 1959 3097 
Q 1497 3097 1228 2736 
Q 959 2375 959 1747 
Q 959 1119 1226 758 
Q 1494 397 1959 397 
Q 2419 397 2687 759 
Q 2956 1122 2956 1747 
Q 2956 2369 2687 2733 
Q 2419 3097 1959 3097 
z
M 1959 3584 
Q 2709 3584 3137 3096 
Q 3566 2609 3566 1747 
Q 3566 888 3137 398 
Q 2709 -91 1959 -91 
Q 1206 -91 779 398 
Q 353 888 353 1747 
Q 353 2609 779 3096 
Q 1206 3584 1959 3584 
z
" transform="scale(0.015625)"/>
       <path id="DejaVuSans-6d" d="M 3328 2828 
Q 3544 3216 3844 3400 
Q 4144 3584 4550 3584 
Q 5097 3584 5394 3201 
Q 5691 2819 5691 2113 
L 5691 0 
L 5113 0 
L 5113 2094 
Q 5113 2597 4934 2840 
Q 4756 3084 4391 3084 
Q 3944 3084 3684 2787 
Q 3425 2491 3425 1978 
L 3425 0 
L 2847 0 
L 2847 2094 
Q 2847 2600 2669 2842 
Q 2491 3084 2119 3084 
Q 1678 3084 1418 2786 
Q 1159 2488 1159 1978 
L 1159 0 
L 581 0 
L 581 3500 
L 1159 3500 
L 1159 2956 
Q 1356 3278 1631 3431 
Q 1906 3584 2284 3584 
Q 2666 3584 2933 3390 
Q 3200 3197 3328 2828 
z
" transform="scale(0.015625)"/>
       <path id="DejaVuSans-53" d="M 3425 4513 
L 3425 3897 
Q 3066 4069 2747 4153 
Q 2428 4238 2131 4238 
Q 1616 4238 1336 4038 
Q 1056 3838 1056 3469 
Q 1056 3159 1242 3001 
Q 1428 2844 1947 2747 
L 2328 2669 
Q 3034 2534 3370 2195 
Q 3706 1856 3706 1288 
Q 3706 609 3251 259 
Q 2797 -91 1919 -91 
Q 1588 -91 1214 -16 
Q 841 59 441 206 
L 441 856 
Q 825 641 1194 531 
Q 1563 422 1919 422 
Q 2459 422 2753 634 
Q 3047 847 3047 1241 
Q 3047 1584 2836 1778 
Q 2625 1972 2144 2069 
L 1759 2144 
Q 1053 2284 737 2584 
Q 422 2884 422 3419 
Q 422 4038 858 4394 
Q 1294 4750 2059 4750 
Q 2388 4750 2728 4690 
Q 3069 4631 3425 4513 
z
" transform="scale(0.015625)"/>
       <path id="DejaVuSans-65" d="M 3597 1894 
L 3597 1613 
L 953 1613 
Q 991 1019 1311 708 
Q 1631 397 2203 397 
Q 2534 397 2845 478 
Q 3156 559 3463 722 
L 3463 178 
Q 3153 47 2828 -22 
Q 2503 -91 2169 -91 
Q 1331 -91 842 396 
Q 353 884 353 1716 
Q 353 2575 817 3079 
Q 1281 3584 2069 3584 
Q 2775 3584 3186 3129 
Q 3597 2675 3597 1894 
z
M 3022 2063 
Q 3016 2534 2758 2815 
Q 2500 3097 2075 3097 
Q 1594 3097 1305 2825 
Q 1016 2553 972 2059 
L 3022 2063 
z
" transform="scale(0.015625)"/>
       <path id="DejaVuSans-72" d="M 2631 2963 
Q 2534 3019 2420 3045 
Q 2306 3072 2169 3072 
Q 1681 3072 1420 2755 
Q 1159 2438 1159 1844 
L 1159 0 
L 581 0 
L 581 3500 
L 1159 3500 
L 1159 2956 
Q 1341 3275 1631 3429 
Q 1922 3584 2338 3584 
Q 2397 3584 2469 3576 
Q 2541 3569 2628 3553 
L 2631 2963 
z
" transform="scale(0.015625)"/>
       <path id="DejaVuSans-63" d="M 3122 3366 
L 3122 2828 
Q 2878 2963 2633 3030 
Q 2388 3097 2138 3097 
Q 1578 3097 1268 2742 
Q 959 2388 959 1747 
Q 959 1106 1268 751 
Q 1578 397 2138 397 
Q 2388 397 2633 464 
Q 2878 531 3122 666 
L 3122 134 
Q 2881 22 2623 -34 
Q 2366 -91 2075 -91 
Q 1284 -91 818 406 
Q 353 903 353 1747 
Q 353 2603 823 3093 
Q 1294 3584 2113 3584 
Q 2378 3584 2631 3529 
Q 2884 3475 3122 3366 
z
" transform="scale(0.015625)"/>
       <path id="DejaVuSans-68" d="M 3513 2113 
L 3513 0 
L 2938 0 
L 2938 2094 
Q 2938 2591 2744 2837 
Q 2550 3084 2163 3084 
Q 1697 3084 1428 2787 
Q 1159 2491 1159 1978 
L 1159 0 
L 581 0 
L 581 4863 
L 1159 4863 
L 1159 2956 
Q 1366 3272 1645 3428 
Q 1925 3584 2291 3584 
Q 2894 3584 3203 3211 
Q 3513 2838 3513 2113 
z
" transform="scale(0.015625)"/>
       <path id="DejaVuSans-42" d="M 1259 2228 
L 1259 519 
L 2272 519 
Q 2781 519 3026 730 
Q 3272 941 3272 1375 
Q 3272 1813 3026 2020 
Q 2781 2228 2272 2228 
L 1259 2228 
z
M 1259 4147 
L 1259 2741 
L 2194 2741 
Q 2656 2741 2882 2914 
Q 3109 3088 3109 3444 
Q 3109 3797 2882 3972 
Q 2656 4147 2194 4147 
L 1259 4147 
z
M 628 4666 
L 2241 4666 
Q 2963 4666 3353 4366 
Q 3744 4066 3744 3513 
Q 3744 3084 3544 2831 
Q 3344 2578 2956 2516 
Q 3422 2416 3680 2098 
Q 3938 1781 3938 1306 
Q 3938 681 3513 340 
Q 3088 0 2303 0 
L 628 0 
L 628 4666 
z
" transform="scale(0.015625)"/>
       <path id="DejaVuSans-73" d="M 2834 3397 
L 2834 2853 
Q 2591 2978 2328 3040 
Q 2066 3103 1784 3103 
Q 1356 3103 1142 2972 
Q 928 2841 928 2578 
Q 928 2378 1081 2264 
Q 1234 2150 1697 2047 
L 1894 2003 
Q 2506 1872 2764 1633 
Q 3022 1394 3022 966 
Q 3022 478 2636 193 
Q 2250 -91 1575 -91 
Q 1294 -91 989 -36 
Q 684 19 347 128 
L 347 722 
Q 666 556 975 473 
Q 1284 391 1588 391 
Q 1994 391 2212 530 
Q 2431 669 2431 922 
Q 2431 1156 2273 1281 
Q 2116 1406 1581 1522 
L 1381 1569 
Q 847 1681 609 1914 
Q 372 2147 372 2553 
Q 372 3047 722 3315 
Q 1072 3584 1716 3584 
Q 2034 3584 2315 3537 
Q 2597 3491 2834 3397 
z
" transform="scale(0.015625)"/>
       <path id="DejaVuSans-69" d="M 603 3500 
L 1178 3500 
L 1178 0 
L 603 0 
L 603 3500 
z
M 603 4863 
L 1178 4863 
L 1178 4134 
L 603 4134 
L 603 4863 
z
" transform="scale(0.015625)"/>
      </defs>
      <use xlink:href="#DejaVuSans-52"/>
      <use xlink:href="#DejaVuSans-61" transform="translate(67.232422 0)"/>
      <use xlink:href="#DejaVuSans-6e" transform="translate(128.511719 0)"/>
      <use xlink:href="#DejaVuSans-64" transform="translate(191.890625 0)"/>
      <use xlink:href="#DejaVuSans-6f" transform="translate(255.367188 0)"/>
      <use xlink:href="#DejaVuSans-6d" transform="translate(316.548828 0)"/>
      <use xlink:href="#DejaVuSans-20" transform="translate(413.960938 0)"/>
      <use xlink:href="#DejaVuSans-53" transform="translate(445.748047 0)"/>
      <use xlink:href="#DejaVuSans-65" transform="translate(509.224609 0)"/>
      <use xlink:href="#DejaVuSans-61" transform="translate(570.748047 0)"/>
      <use xlink:href="#DejaVuSans-72" transform="translate(632.027344 0)"/>
      <use xlink:href="#DejaVuSans-63" transform="translate(670.890625 0)"/>
      <use xlink:href="#DejaVuSans-68" transform="translate(725.871094 0)"/>
      <use xlink:href="#DejaVuSans-20" transform="translate(789.25 0)"/>
      <use xlink:href="#DejaVuSans-42" transform="translate(821.037109 0)"/>
      <use xlink:href="#DejaVuSans-61" transform="translate(889.640625 0)"/>
      <use xlink:href="#DejaVuSans-73" transform="translate(950.919922 0)"/>
      <use xlink:href="#DejaVuSans-65" transform="translate(1003.019531 0)"/>
      <use xlink:href="#DejaVuSans-6c" transform="translate(1064.542969 0)"/>
      <use xlink:href="#DejaVuSans-69" transform="translate(1092.326172 0)"/>
      <use xlink:href="#DejaVuSans-6e" transform="translate(1120.109375 0)"/>
      <use xlink:href="#DejaVuSans-65" transform="translate(1183.488281 0)"/>
     </g>
    </g>
   </g>
  </g>
 </g>
 <defs>
  <clipPath id="p721984b982">
   <rect x="49.900937" y="22.318125" width="655.076132" height="214.172727"/>
  </clipPath>
 </defs>
</svg>
